<svg width="52" height="25" viewBox="0 0 52 25" fill="none" xmlns="http://www.w3.org/2000/svg">
<g id="Group">
<path id="path911" fill-rule="evenodd" clip-rule="evenodd" d="M51.0545 21.6802C51.0545 23.4153 49.6574 24.8228 47.932 24.8259C46.2066 24.829 44.8045 23.4265 44.7984 21.6913C44.7922 19.9561 46.1844 18.5437 47.9098 18.5344C49.6352 18.5252 51.0422 19.9227 51.0545 21.6579M49.6398 21.6801C49.6398 22.6204 48.8745 23.383 47.9294 23.3847C46.9843 23.3864 46.2164 22.6264 46.213 21.6862C46.2097 20.746 46.9722 19.9806 47.9173 19.9756C48.8623 19.9706 49.633 20.7279 49.6397 21.6681" fill="#F2A03F"/>
<path id="path848" fill-rule="evenodd" clip-rule="evenodd" d="M1.32711 23.7484C1.78556 24.2393 2.3572 24.5714 2.97052 24.7032L2.97052 24.7032C3.07304 24.7252 3.40858 24.7375 3.71616 24.7303C4.17774 24.7197 4.33507 24.6963 4.6172 24.5963C5.08826 24.4294 5.42383 24.219 5.78711 23.8627C6.15562 23.5014 6.38871 23.1322 6.56713 22.6273L6.69872 22.255L6.71116 19.552L6.7236 16.8491L10.1234 20.2386C12.2475 22.3562 13.6642 23.7326 13.899 23.9067C14.3909 24.2714 15.017 24.5812 15.4624 24.6803C15.9224 24.7827 16.6344 24.7538 17.0685 24.6151C17.9678 24.328 18.7528 23.5474 19.0568 22.6378C19.1714 22.2951 19.1847 22.1889 19.1842 21.6258C19.1836 21.0932 19.1673 20.9502 19.0778 20.6938C18.8418 20.0171 18.8163 19.9884 15.2782 16.4112C13.1014 14.2103 11.9552 13.0196 11.9812 12.986C12.0032 12.9576 13.4888 11.162 15.2825 8.99558C17.0763 6.8292 18.618 4.95228 18.7087 4.82466C19.3287 3.95193 19.3874 2.64404 18.8526 1.61935C18.6458 1.22319 18.1099 0.664754 17.7113 0.430037C16.835 -0.0859533 15.6741 -0.137919 14.7626 0.298046C14.2607 0.538109 13.9211 0.82406 13.3619 1.47735C11.3879 3.78369 9.79068 5.62054 8.89959 6.60928C7.92378 7.69204 6.97472 8.79846 6.84873 9.0002C6.81797 9.04945 6.77688 9.08975 6.75741 9.08975C6.73795 9.08975 6.72176 7.66896 6.72121 5.93243C6.72031 2.43263 6.71881 2.41181 6.42046 1.78359C5.65691 0.175764 3.73485 -0.463904 2.14098 0.359364C1.6684 0.603459 1.07399 1.20592 0.838032 1.67995C0.787641 1.78119 0.744725 1.85061 0.708181 1.92324C0.478244 2.38022 0.500592 2.96414 0.500592 12.3985V22.1618L0.609683 22.5113C0.768643 23.0206 0.967212 23.363 1.32711 23.7484ZM4.30678 23.2001C4.67605 23.0308 4.97042 22.7433 5.14992 22.3764L5.30057 22.0686L5.31298 12.4917C5.32524 3.03885 5.3242 2.91101 5.23248 2.61202C5.1809 2.44389 5.06133 2.20715 4.96375 2.07998C4.05271 0.892694 2.20662 1.34411 1.92403 2.82328C1.88507 3.02723 1.8746 5.62278 1.88475 12.5617L1.89859 22.022L2.026 22.2939C2.26178 22.7972 2.62095 23.129 3.09877 23.2848C3.41253 23.3871 3.98644 23.3469 4.30678 23.2001ZM17.6612 3.82367C17.5815 3.9822 16.2865 5.58217 14.2664 8.01789C12.4701 10.1837 10.9824 11.9625 10.9605 11.9706C10.9128 11.9883 10.5517 11.506 10.3322 11.1315C9.77426 10.1795 9.58429 9.21672 9.79132 8.3903C9.91426 7.89955 10.1586 7.39439 10.4409 7.04756C10.5593 6.90201 11.614 5.66999 12.7846 4.30974C14.3265 2.51805 14.9755 1.79676 15.1398 1.69214C16.0373 1.12085 17.2209 1.44979 17.6558 2.39137C17.7739 2.64696 17.79 2.73516 17.79 3.12463C17.79 3.51526 17.7749 3.59751 17.6612 3.82367ZM17.6386 22.3782C17.4583 22.7444 17.1642 23.0315 16.7972 23.1995C16.4287 23.3682 15.9298 23.3893 15.5797 23.2509C15.1626 23.0861 14.8036 22.8516 14.3986 22.4794C13.5617 21.7103 7.99533 16.1256 7.69535 15.7541C7.34154 15.3159 6.9975 14.6692 6.88954 14.2393C6.69369 13.4596 6.68155 12.4756 6.86004 11.8479C7.0283 11.2563 7.46406 10.4821 8.0399 9.75176C8.16712 9.59041 8.27898 9.46618 8.28848 9.47567C8.29798 9.48518 8.337 9.67216 8.3752 9.89119C8.54043 10.8387 9.05334 11.8998 9.78497 12.8078C9.9147 12.9688 11.712 14.8081 13.7789 16.8951L14.453 17.5754C17.3551 20.5039 17.7434 20.8957 17.7877 21.3231C17.7945 21.3891 17.7932 21.456 17.7916 21.5332C17.7908 21.5695 17.7901 21.6082 17.7901 21.6501C17.7901 22.0302 17.7755 22.1 17.6386 22.3782Z" fill="#584DFC"/>
<path id="path842" fill-rule="evenodd" clip-rule="evenodd" d="M23.4446 21.5254C24.1666 23.1957 25.826 24.3282 28.0625 24.6769C28.7186 24.7805 29.5894 24.7772 30.6139 24.7732C31.1378 24.7712 31.702 24.769 32.2981 24.7809C32.9956 24.7647 33.502 24.6768 33.9857 24.3947C34.5366 24.0735 35.0337 23.5936 35.3345 22.9874C35.6326 22.3867 35.7211 21.5264 35.5515 20.8802C35.3573 19.8889 34.3461 18.5708 32.775 18.5399C32.4884 18.5262 32.0406 18.5246 31.2493 18.5218C30.8794 18.5205 30.4345 18.5189 29.8958 18.5158L26.8092 18.4975L26.7967 10.5198L26.7843 2.5421L26.6749 2.21588C26.4896 1.66346 26.2992 1.35738 25.8759 0.931548C25.2464 0.298205 24.5487 0.00226212 23.6852 0.00226212C22.8218 0.00226212 22.1241 0.298205 21.4946 0.931548C21.0605 1.36822 20.8697 1.68041 20.6953 2.23918L20.5862 2.5887V8.88004C20.5862 14.7758 20.5916 15.2036 20.6721 15.684C20.9359 17.2591 21.5886 18.3771 22.6623 19.0933L22.9675 19.2969L23.0237 19.8439C23.0916 20.5054 23.2125 20.9884 23.4446 21.5254ZM25.4098 9.47533C25.4105 3.08154 25.4105 2.63964 25.2136 2.31859C25.1989 2.29476 25.1832 2.27159 25.1664 2.2467C25.1523 2.22597 25.1374 2.20406 25.1217 2.17957C24.9498 1.91163 24.6697 1.6734 24.3574 1.52942C24.0277 1.3774 23.3431 1.3774 23.0134 1.52942C22.5126 1.76027 22.1638 2.17279 22.031 2.69098C21.9659 2.945 21.9596 3.65307 21.9739 9.09727C21.9898 15.134 21.9914 15.2241 22.0888 15.6607C22.3987 17.0488 22.9863 17.8225 24.0418 18.2324C24.3759 18.3621 24.964 18.4911 25.2582 18.4993L25.4097 18.5035V10.7306C25.4097 10.2885 25.4097 9.87056 25.4098 9.47533ZM33.2596 23.1908C34.3117 22.6742 34.5636 21.34 33.774 20.466C33.4175 20.1586 33.1382 19.9994 32.6151 19.9674C31.7194 19.9718 30.8823 19.9628 30.0286 19.9536H30.0285H30.0284C28.9497 19.9419 27.8444 19.93 26.5607 19.9446C25.5139 19.9823 25.1691 19.9272 24.7495 19.8601L24.7494 19.86C24.6884 19.8503 24.6258 19.8403 24.5592 19.8302C24.3989 19.7893 24.3956 19.8392 24.5239 20.3484C24.6388 20.804 24.9182 21.3768 25.1976 21.7294C25.807 22.4983 27.0012 23.1156 28.2354 23.2997C28.3857 23.3221 29.5153 23.3374 30.7456 23.3336L32.5481 23.3281C32.8928 23.3357 33.0165 23.3101 33.2596 23.1908Z" fill="#E94786"/>
<path id="path836" fill-rule="evenodd" clip-rule="evenodd" d="M37.7379 23.7137C38.1651 24.1844 38.7439 24.5325 39.3398 24.6772C39.7354 24.7733 40.3854 24.764 40.8066 24.6563C41.705 24.4265 42.4245 23.8412 42.8419 23.0006C42.8953 22.893 42.9398 22.8061 42.977 22.7161C43.1686 22.2519 43.1636 21.7065 43.1651 17.8277L43.1668 13.6801L46.8598 9.24925C49.5344 6.04026 50.5944 4.73587 50.7036 4.5191C51.5994 2.74063 50.6166 0.58883 48.6824 0.0941615C47.7671 -0.139949 46.7256 0.0913387 45.9801 0.694276C45.7959 0.843244 44.8513 1.98098 42.959 4.33308C41.4448 6.21521 40.1705 7.77659 40.1274 7.80281C40.072 7.83642 40.017 7.83305 39.9409 7.7914C39.8816 7.7589 38.5958 6.19065 37.0835 4.3064C34.1866 0.696838 34.1355 0.63997 33.5021 0.320252C32.0208 -0.427505 30.1733 0.181416 29.3741 1.68077C29.0551 2.27938 28.9445 3.19392 29.1123 3.84697C29.2866 4.52553 29.3402 4.59804 34.232 10.7732L38.8836 16.6451L38.6298 16.9568C37.8987 17.8549 37.2816 19.155 37.033 20.3209C36.9281 20.8128 36.9132 21.9423 37.0066 22.3249C37.1124 22.7582 37.4464 23.3924 37.7379 23.7137ZM44.6446 9.73864C48.3003 5.35068 49.4636 3.92506 49.5311 3.75022C49.5945 3.58585 49.6196 3.40176 49.6196 3.10133C49.6195 2.73971 49.6015 2.64337 49.4891 2.40229C49.05 1.46093 47.863 1.1111 46.9925 1.66647C46.8422 1.76233 46.0702 2.68968 44.052 5.19844C42.5468 7.06953 41.2359 8.67722 41.139 8.77108C41.042 8.86494 40.8553 9.00125 40.7241 9.07399C40.5116 9.1918 40.4397 9.20626 40.0661 9.20626C39.6994 9.20626 39.6153 9.19007 39.397 9.07752C39.2597 9.00672 39.0866 8.90187 39.0122 8.84451C38.9379 8.78716 37.6791 7.25128 36.2148 5.43145C34.7505 3.61162 33.4767 2.04181 33.384 1.94298C32.7222 1.23711 31.6016 1.21759 30.9192 1.90004C30.4371 2.38209 30.2862 3.23693 30.5775 3.83571C30.6917 4.07045 39.7537 15.5326 39.8087 15.5118C39.8295 15.504 42.0056 12.9061 44.6446 9.73864ZM40.7555 23.2178C41.0832 23.0725 41.4511 22.7025 41.61 22.3585L41.7439 22.0685L41.7568 18.7481C41.7638 16.9219 41.7534 15.4289 41.7335 15.4303C41.7136 15.4317 41.194 16.0398 40.5789 16.7817C39.3731 18.2358 39.0677 18.6888 38.7424 19.5055C38.4452 20.2517 38.3479 20.7134 38.3447 21.3928C38.3005 22.2582 38.7663 23.0207 39.5243 23.2799C39.8325 23.3786 40.465 23.3467 40.7555 23.2178Z" fill="#F2A03F"/>
</g>
</svg>
