<svg fill="#E54D26" xmlns="http://www.w3.org/2000/svg" xmlns:xlink="http://www.w3.org/1999/xlink" xml:space="preserve" version="1.1" style="shape-rendering:geometricPrecision;text-rendering:geometricPrecision;image-rendering:optimizeQuality;" viewBox="0 0 236 189" x="0px" y="0px" fill-rule="evenodd" clip-rule="evenodd"><g><path class="fil0" d="M110 154c10,0 18,8 18,17 0,10 -8,18 -18,18 -10,0 -18,-8 -18,-18 0,-9 8,-17 18,-17z"></path><path class="fil0" d="M197 154c9,0 17,8 17,17 0,10 -8,18 -17,18 -10,0 -18,-8 -18,-18 0,-9 8,-17 18,-17z"></path><path class="fil0" d="M8 17c-11,0 -11,-17 0,-17l39 0 14 36 175 0 -24 84 -119 0 4 10 111 0c11,0 11,17 0,17l-122 0 -50 -130 -28 0z"></path></g></svg>