<?xml version="1.0" encoding="utf-8"?>
<!-- Generator: Adobe Illustrator 24.0.1, SVG Export Plug-In . SVG Version: 6.00 Build 0)  -->
<svg version="1.1" id="Layer_1" xmlns="http://www.w3.org/2000/svg" xmlns:xlink="http://www.w3.org/1999/xlink" x="0px" y="0px"
	 viewBox="0 0 83.7 88.2" style="enable-background:new 0 0 83.7 88.2;" xml:space="preserve">
<style type="text/css">
	.st0{fill:#08AACD;}
</style>
<title>Epeex_by_MGID + Adchoice</title>
<path class="st0" d="M77.3,51.3c7.8-4.2,9.2-9.7,0-15l-63-34.5C6.7-2.5,0,1.1,0,9.9v67.9C0,89,5.9,90.1,13.6,85.9l7.2-4.1
	c2.3-1.2,3.5-3.8,3.1-6.3c-0.6-2.4-3-3.9-5.4-3.3l-0.8,0.3c-4.3,2.3-7.1,0-7.1-4.9V18.9c0-4.8,3.5-7.2,7.7-4.5l44.1,25.2
	c4.3,2.5,4.3,6.3,0,8.7L35.5,62.6V45.8c0-2.5-2.1-4.6-4.6-4.6s-4.6,2.1-4.6,4.6l0,0V69c0.5,3.5,3.8,5.9,7.3,5.4c0,0,0,0,0,0l1.6-0.5
	L77.3,51.3z"/>
</svg>
