<svg width="70" height="37" viewBox="0 0 70 37" fill="none" xmlns="http://www.w3.org/2000/svg">
<path d="M44.9805 4.77588L41.2695 6.32612L50.8463 11.8116L54.0385 9.98311L44.9805 4.77588Z" fill="#FF0000"/>
<path d="M47.6543 9.983L50.8465 11.8115L70 0.800781L47.6543 9.983Z" fill="#FF6D70"/>
<path fill-rule="evenodd" clip-rule="evenodd" d="M42.3909 36C44.0172 34.7304 45.2628 32.9994 45.9263 31H70V36H42.3909Z" fill="#FFD801"/>
<path fill-rule="evenodd" clip-rule="evenodd" d="M29.3285 36C27.8426 34.8284 26.7156 33.1941 25.5708 31L0 31V36H29.3285Z" fill="#048AFF"/>
<path fill-rule="evenodd" clip-rule="evenodd" d="M66.8182 5.85149V12.1707C65.3466 10.9632 63.4773 10.2387 61.4489 10.2387C56.7159 10.2387 52.8978 14.1027 52.8978 18.8924C52.8978 23.6821 56.7159 27.5461 61.4489 27.5461C63.4773 27.5461 65.3466 26.8216 66.8182 25.6141V27.3449H70V4L66.8182 5.85149ZM61.4489 24.3261C58.4659 24.3261 56.0796 21.9111 56.0796 18.8924C56.0796 15.8737 58.4659 13.4587 61.4489 13.4587C64.4318 13.4587 66.8182 15.8737 66.8182 18.8924C66.8182 21.8709 64.4318 24.3261 61.4489 24.3261ZM13.5227 13.5782C14.5966 11.5657 16.7045 10.2373 19.0909 10.2373C22.5909 10.2373 25.4545 13.0952 25.4545 16.6776V27.3443H22.2727V17.2814C22.2727 15.0675 20.4829 13.2562 18.2954 13.2562C16.1079 13.2562 14.3182 15.0675 14.3182 17.2814V27.3443H11.1364V17.2814C11.1364 15.0675 9.34659 13.2562 7.15909 13.2562C4.97159 13.2562 3.18182 15.0675 3.18182 17.2814V27.3443H0V10.4386H3.18182V12.4109C4.33523 11.0826 6.04545 10.2373 7.95454 10.2373C10.3409 10.2373 12.4489 11.6059 13.5227 13.5782ZM50.9092 27.3476H47.7274V13.2595L50.9092 15.1514V27.3476ZM41.3631 12.1727V9.55645L44.5449 11.4079V26.6626C44.5449 31.4523 40.7267 35.3163 35.9938 35.3163C32.8518 35.3163 30.1074 33.5856 28.6359 31.0498L31.3802 29.4801C32.3347 31.0498 34.0449 32.0963 35.9938 32.0963C38.9767 32.0963 41.3631 29.6813 41.3631 26.6626V25.6161C39.8915 26.8236 38.0222 27.5481 35.9938 27.5481C31.2609 27.5481 27.4427 23.6841 27.4427 18.8944C27.4427 14.1047 31.2609 10.2407 35.9938 10.2407C38.0222 10.2407 39.8915 10.9652 41.3631 12.1727ZM30.6245 18.8944C30.6245 21.9131 33.0108 24.3281 35.9938 24.3281C38.9767 24.3281 41.3631 21.8729 41.3631 18.8944C41.3631 15.8757 38.9767 13.4607 35.9938 13.4607C33.0108 13.4607 30.6245 15.8757 30.6245 18.8944Z" fill="#0000CC"/>
</svg>
