<?xml version="1.0" encoding="utf-8"?><svg xmlns="http://www.w3.org/2000/svg" width="19" height="22" fill="none" viewBox="0 0 19 22"><g><path fill="#fff" d="M0 0H18.857V22H0z"/><path fill="#61CD5F" d="M16.033 4.172c-1.764-1.804-4.113-2.797-6.609-2.797-5.152 0-9.344 4.28-9.344 9.54 0 1.68.43 3.32 1.246 4.769L0 20.625l4.954-1.328c1.364.76 2.9 1.16 4.466 1.16h.004c5.148 0 9.433-4.28 9.433-9.539 0-2.548-1.06-4.941-2.824-6.746zM9.424 18.85c-1.397 0-2.765-.382-3.956-1.104l-.282-.172-2.938.786.783-2.926-.186-.3c-.778-1.264-1.187-2.72-1.187-4.22 0-4.37 3.486-7.928 7.77-7.928 2.076 0 4.025.825 5.49 2.325 1.464 1.5 2.365 3.489 2.36 5.607 0 4.375-3.573 7.932-7.854 7.932zm4.26-5.938c-.231-.12-1.38-.696-1.595-.773-.215-.082-.37-.12-.526.12-.156.24-.602.773-.741.937-.135.159-.274.18-.505.06-1.372-.7-2.273-1.25-3.178-2.836-.24-.421.24-.391.686-1.302.076-.159.038-.297-.021-.417-.06-.12-.526-1.293-.72-1.77-.19-.464-.383-.4-.526-.408-.135-.009-.29-.009-.446-.009-.156 0-.409.06-.623.297-.215.24-.817.816-.817 1.989s.838 2.307.951 2.466c.118.16 1.646 2.566 3.99 3.601 1.482.653 2.063.71 2.804.597.45-.068 1.38-.575 1.574-1.134.194-.559.194-1.036.135-1.134-.055-.108-.21-.168-.442-.284z"/></g></svg>